<mxfile host="drawio-plugin" modified="2023-10-13T22:21:04.642Z" agent="5.0 (Windows NT 10.0; Win64; x64) AppleWebKit/537.36 (KHTML, like Gecko) Chrome/111.0.0.0 Safari/537.36" etag="iEE8-C6RdvPeemdkywnU" version="20.5.3" type="embed"><diagram name="Page-1" id="w9ihNUBb9Rjg-Ea71THt"><mxGraphModel dx="2167" dy="750" grid="1" gridSize="10" guides="1" tooltips="1" connect="1" arrows="1" fold="1" page="1" pageScale="1" pageWidth="827" pageHeight="1169" math="0" shadow="0"><root><mxCell id="0"/><mxCell id="1" parent="0"/><mxCell id="57" value="GOMOKU" style="text;html=1;align=center;verticalAlign=middle;resizable=0;points=[];autosize=1;strokeColor=none;fillColor=none;fontSize=35;" parent="1" vertex="1"><mxGeometry x="140" y="150" width="180" height="60" as="geometry"/></mxCell><mxCell id="yqkwtP5y6iGvj30xNfCS-2" value="Users" style="whiteSpace=wrap;html=1;align=center;container=0;" parent="1" vertex="1"><mxGeometry x="180" y="460" width="100" height="40" as="geometry"/></mxCell><mxCell id="yqkwtP5y6iGvj30xNfCS-3" value="username" style="ellipse;whiteSpace=wrap;html=1;align=center;container=0;" parent="1" vertex="1"><mxGeometry x="80" y="410" width="100" height="40" as="geometry"/></mxCell><mxCell id="yqkwtP5y6iGvj30xNfCS-4" value="id" style="ellipse;whiteSpace=wrap;html=1;align=center;fontStyle=4;container=0;" parent="1" vertex="1"><mxGeometry x="250" y="500" width="100" height="40" as="geometry"/></mxCell><mxCell id="yqkwtP5y6iGvj30xNfCS-15" value="" style="endArrow=none;html=1;rounded=0;" parent="1" source="yqkwtP5y6iGvj30xNfCS-4" target="yqkwtP5y6iGvj30xNfCS-2" edge="1"><mxGeometry relative="1" as="geometry"><mxPoint x="-1" y="680" as="sourcePoint"/><mxPoint x="159" y="680" as="targetPoint"/></mxGeometry></mxCell><mxCell id="yqkwtP5y6iGvj30xNfCS-16" value="" style="endArrow=none;html=1;rounded=0;" parent="1" source="yqkwtP5y6iGvj30xNfCS-3" target="yqkwtP5y6iGvj30xNfCS-2" edge="1"><mxGeometry relative="1" as="geometry"><mxPoint x="-1" y="680" as="sourcePoint"/><mxPoint x="159" y="680" as="targetPoint"/></mxGeometry></mxCell><mxCell id="yqkwtP5y6iGvj30xNfCS-19" value="elo" style="ellipse;whiteSpace=wrap;html=1;align=center;container=0;" parent="1" vertex="1"><mxGeometry x="250" y="576" width="100" height="40" as="geometry"/></mxCell><mxCell id="yqkwtP5y6iGvj30xNfCS-31" value="password_validation" style="ellipse;whiteSpace=wrap;html=1;align=center;container=0;" parent="1" vertex="1"><mxGeometry x="100" y="500" width="120" height="40" as="geometry"/></mxCell><mxCell id="4" value="match_outcome" style="ellipse;whiteSpace=wrap;html=1;align=center;container=0;" parent="1" vertex="1"><mxGeometry x="420" y="260" width="100" height="40" as="geometry"/></mxCell><mxCell id="5" value="" style="endArrow=none;html=1;rounded=0;" parent="1" source="287" target="4" edge="1"><mxGeometry relative="1" as="geometry"><mxPoint x="520" y="300" as="sourcePoint"/><mxPoint x="677.5" y="635" as="targetPoint"/></mxGeometry></mxCell><mxCell id="19" value="created_at" style="ellipse;whiteSpace=wrap;html=1;align=center;container=0;" parent="1" vertex="1"><mxGeometry x="-160" y="520" width="100" height="40" as="geometry"/></mxCell><mxCell id="20" value="last_used" style="ellipse;whiteSpace=wrap;html=1;align=center;container=0;" parent="1" vertex="1"><mxGeometry x="-280" y="460" width="100" height="40" as="geometry"/></mxCell><mxCell id="21" value="" style="endArrow=none;html=1;rounded=0;" parent="1" source="39" target="20" edge="1"><mxGeometry relative="1" as="geometry"><mxPoint x="-101.00000000000023" y="599.9999999999998" as="sourcePoint"/><mxPoint x="79" y="530" as="targetPoint"/></mxGeometry></mxCell><mxCell id="22" value="" style="endArrow=none;html=1;rounded=0;" parent="1" source="39" target="19" edge="1"><mxGeometry relative="1" as="geometry"><mxPoint x="-131.0460686347576" y="599.9999999999998" as="sourcePoint"/><mxPoint x="79" y="530" as="targetPoint"/></mxGeometry></mxCell><mxCell id="38" value="has" style="shape=rhombus;double=1;perimeter=rhombusPerimeter;whiteSpace=wrap;html=1;align=center;container=0;" parent="1" vertex="1"><mxGeometry x="10" y="460" width="90" height="40" as="geometry"/></mxCell><mxCell id="39" value="Tokens" style="shape=ext;margin=3;double=1;whiteSpace=wrap;html=1;align=center;container=0;" parent="1" vertex="1"><mxGeometry x="-160" y="460" width="100" height="40" as="geometry"/></mxCell><mxCell id="44" value="" style="endArrow=none;html=1;rounded=0;" parent="1" source="38" target="yqkwtP5y6iGvj30xNfCS-2" edge="1"><mxGeometry relative="1" as="geometry"><mxPoint x="-181" y="550" as="sourcePoint"/><mxPoint x="-21" y="550" as="targetPoint"/></mxGeometry></mxCell><mxCell id="45" value="1" style="resizable=0;html=1;align=right;verticalAlign=bottom;container=0;" parent="44" connectable="0" vertex="1"><mxGeometry relative="1" as="geometry"><mxPoint x="40" as="offset"/></mxGeometry></mxCell><mxCell id="77" value="" style="endArrow=none;html=1;rounded=0;" parent="1" source="yqkwtP5y6iGvj30xNfCS-19" target="178" edge="1"><mxGeometry width="50" height="50" relative="1" as="geometry"><mxPoint x="50" y="710" as="sourcePoint"/><mxPoint x="100" y="660" as="targetPoint"/></mxGeometry></mxCell><mxCell id="101" value="turn" style="ellipse;whiteSpace=wrap;html=1;align=center;container=0;" parent="1" vertex="1"><mxGeometry x="620" y="260" width="100" height="40" as="geometry"/></mxCell><mxCell id="102" value="" style="endArrow=none;html=1;rounded=0;" parent="1" source="287" target="101" edge="1"><mxGeometry relative="1" as="geometry"><mxPoint x="620" y="300" as="sourcePoint"/><mxPoint x="707.5" y="415" as="targetPoint"/></mxGeometry></mxCell><mxCell id="123" value="" style="shape=link;html=1;rounded=0;" parent="1" source="38" target="39" edge="1"><mxGeometry relative="1" as="geometry"><mxPoint x="70" y="520" as="sourcePoint"/><mxPoint x="230" y="520" as="targetPoint"/></mxGeometry></mxCell><mxCell id="124" value="N" style="resizable=0;html=1;align=right;verticalAlign=bottom;container=0;" parent="123" connectable="0" vertex="1"><mxGeometry relative="1" as="geometry"><mxPoint x="-25" as="offset"/></mxGeometry></mxCell><mxCell id="130" value="Rules" style="whiteSpace=wrap;html=1;align=center;container=0;" parent="1" vertex="1"><mxGeometry x="520" y="621" width="100" height="40" as="geometry"/></mxCell><mxCell id="161" value="board_size" style="ellipse;whiteSpace=wrap;html=1;align=center;container=0;" parent="1" vertex="1"><mxGeometry x="450" y="661" width="100" height="40" as="geometry"/></mxCell><mxCell id="116" value="" style="endArrow=none;html=1;rounded=0;" parent="1" source="130" target="161" edge="1"><mxGeometry relative="1" as="geometry"><mxPoint x="797.4999999999998" y="494.9244456671877" as="sourcePoint"/><mxPoint x="909.9999999999998" y="444.9999999999999" as="targetPoint"/></mxGeometry></mxCell><mxCell id="162" value="opening_rules" style="ellipse;whiteSpace=wrap;html=1;align=center;container=0;" parent="1" vertex="1"><mxGeometry x="600" y="660" width="100" height="40" as="geometry"/></mxCell><mxCell id="108" value="" style="endArrow=none;html=1;rounded=0;" parent="1" source="130" target="162" edge="1"><mxGeometry relative="1" as="geometry"><mxPoint x="847.4999999999998" y="495.0000000000001" as="sourcePoint"/><mxPoint x="909.9999999999998" y="524.9999999999999" as="targetPoint"/></mxGeometry></mxCell><mxCell id="163" value="variant" style="ellipse;whiteSpace=wrap;html=1;align=center;container=0;" parent="1" vertex="1"><mxGeometry x="450" y="580" width="100" height="40" as="geometry"/></mxCell><mxCell id="119" value="" style="endArrow=none;html=1;rounded=0;" parent="1" source="130" target="163" edge="1"><mxGeometry relative="1" as="geometry"><mxPoint x="897.4999999999998" y="495.0000000000001" as="sourcePoint"/><mxPoint x="979.9999999999998" y="484.9999999999999" as="targetPoint"/></mxGeometry></mxCell><mxCell id="169" value="Moves" style="shape=ext;margin=3;double=1;whiteSpace=wrap;html=1;align=center;container=0;" parent="1" vertex="1"><mxGeometry x="-160" y="300" width="100" height="40" as="geometry"/></mxCell><mxCell id="176" value="&lt;span style=&quot;border-bottom: 1px dotted&quot;&gt;id&lt;/span&gt;" style="ellipse;whiteSpace=wrap;html=1;align=center;container=0;" parent="1" vertex="1"><mxGeometry x="520" y="240" width="100" height="40" as="geometry"/></mxCell><mxCell id="yqkwtP5y6iGvj30xNfCS-12" value="" style="endArrow=none;html=1;rounded=0;" parent="1" source="176" target="287" edge="1"><mxGeometry relative="1" as="geometry"><mxPoint x="569.9999999999998" y="255" as="sourcePoint"/><mxPoint x="570" y="300" as="targetPoint"/></mxGeometry></mxCell><mxCell id="177" value="&lt;span style=&quot;border-bottom: 1px dotted&quot;&gt;token_validation&lt;/span&gt;" style="ellipse;whiteSpace=wrap;html=1;align=center;container=0;" parent="1" vertex="1"><mxGeometry x="-160" y="400" width="100" height="40" as="geometry"/></mxCell><mxCell id="yqkwtP5y6iGvj30xNfCS-44" value="" style="endArrow=none;html=1;rounded=0;" parent="1" source="39" target="177" edge="1"><mxGeometry relative="1" as="geometry"><mxPoint x="-151.00000000000023" y="579.9999999999998" as="sourcePoint"/><mxPoint x="-169.99999999999818" y="639.9999999999999" as="targetPoint"/></mxGeometry></mxCell><mxCell id="178" value="User Stats" style="shape=ext;margin=3;double=1;whiteSpace=wrap;html=1;align=center;container=0;" parent="1" vertex="1"><mxGeometry x="180" y="616" width="100" height="40" as="geometry"/></mxCell><mxCell id="184" value="has" style="shape=rhombus;double=1;perimeter=rhombusPerimeter;whiteSpace=wrap;html=1;align=center;container=0;" parent="1" vertex="1"><mxGeometry x="350" y="621" width="80" height="40" as="geometry"/></mxCell><mxCell id="186" value="has" style="shape=rhombus;double=1;perimeter=rhombusPerimeter;whiteSpace=wrap;html=1;align=center;container=0;" parent="1" vertex="1"><mxGeometry x="190" y="540" width="80" height="40" as="geometry"/></mxCell><mxCell id="187" value="" style="endArrow=none;html=1;rounded=0;" parent="1" source="186" target="yqkwtP5y6iGvj30xNfCS-2" edge="1"><mxGeometry relative="1" as="geometry"><mxPoint x="230" y="435" as="sourcePoint"/><mxPoint x="390" y="435" as="targetPoint"/></mxGeometry></mxCell><mxCell id="188" value="1" style="resizable=0;html=1;align=right;verticalAlign=bottom;container=0;" parent="187" connectable="0" vertex="1"><mxGeometry relative="1" as="geometry"><mxPoint x="10" as="offset"/></mxGeometry></mxCell><mxCell id="189" value="" style="shape=link;html=1;rounded=0;" parent="1" source="186" target="178" edge="1"><mxGeometry relative="1" as="geometry"><mxPoint x="230" y="435" as="sourcePoint"/><mxPoint x="390" y="435" as="targetPoint"/></mxGeometry></mxCell><mxCell id="190" value="N" style="resizable=0;html=1;align=right;verticalAlign=bottom;container=0;" parent="189" connectable="0" vertex="1"><mxGeometry relative="1" as="geometry"><mxPoint y="20" as="offset"/></mxGeometry></mxCell><mxCell id="194" value="" style="endArrow=none;html=1;rounded=0;" parent="1" source="288" target="130" edge="1"><mxGeometry relative="1" as="geometry"><mxPoint x="570" y="420" as="sourcePoint"/><mxPoint x="390" y="415" as="targetPoint"/></mxGeometry></mxCell><mxCell id="195" value="1" style="resizable=0;html=1;align=right;verticalAlign=bottom;container=0;" parent="194" connectable="0" vertex="1"><mxGeometry relative="1" as="geometry"><mxPoint x="-64" y="59" as="offset"/></mxGeometry></mxCell><mxCell id="196" value="makes" style="shape=rhombus;double=1;perimeter=rhombusPerimeter;whiteSpace=wrap;html=1;align=center;container=0;" parent="1" vertex="1"><mxGeometry x="15" y="300" width="80" height="40" as="geometry"/></mxCell><mxCell id="197" value="" style="endArrow=none;html=1;rounded=0;" parent="1" source="196" target="213" edge="1"><mxGeometry relative="1" as="geometry"><mxPoint x="220" y="435" as="sourcePoint"/><mxPoint x="380" y="435" as="targetPoint"/></mxGeometry></mxCell><mxCell id="198" value="1" style="resizable=0;html=1;align=right;verticalAlign=bottom;container=0;" parent="197" connectable="0" vertex="1"><mxGeometry relative="1" as="geometry"><mxPoint x="43" as="offset"/></mxGeometry></mxCell><mxCell id="199" value="" style="shape=link;html=1;rounded=0;" parent="1" source="196" target="169" edge="1"><mxGeometry relative="1" as="geometry"><mxPoint x="220" y="435" as="sourcePoint"/><mxPoint x="380" y="435" as="targetPoint"/></mxGeometry></mxCell><mxCell id="200" value="N" style="resizable=0;html=1;align=right;verticalAlign=bottom;container=0;" parent="199" connectable="0" vertex="1"><mxGeometry relative="1" as="geometry"><mxPoint x="-27" as="offset"/></mxGeometry></mxCell><mxCell id="127" value="" style="endArrow=none;html=1;rounded=0;" parent="1" source="184" target="130" edge="1"><mxGeometry relative="1" as="geometry"><mxPoint x="780" y="484.9999999999999" as="sourcePoint"/><mxPoint x="567.4999999999998" y="585.0000000000001" as="targetPoint"/></mxGeometry></mxCell><mxCell id="128" value="1" style="resizable=0;html=1;align=right;verticalAlign=bottom;container=0;" parent="127" connectable="0" vertex="1"><mxGeometry relative="1" as="geometry"><mxPoint x="45" as="offset"/></mxGeometry></mxCell><mxCell id="207" value="" style="shape=link;html=1;rounded=0;" parent="1" source="184" target="178" edge="1"><mxGeometry relative="1" as="geometry"><mxPoint x="390" y="650" as="sourcePoint"/><mxPoint x="250" y="785" as="targetPoint"/></mxGeometry></mxCell><mxCell id="208" value="N" style="resizable=0;html=1;align=right;verticalAlign=bottom;container=0;" parent="207" connectable="0" vertex="1"><mxGeometry relative="1" as="geometry"><mxPoint x="-26" y="1" as="offset"/></mxGeometry></mxCell><mxCell id="209" value="id" style="ellipse;whiteSpace=wrap;html=1;align=center;fontStyle=4;container=0;" parent="1" vertex="1"><mxGeometry x="640" y="620" width="100" height="40" as="geometry"/></mxCell><mxCell id="210" value="" style="endArrow=none;html=1;rounded=0;" parent="1" source="130" target="209" edge="1"><mxGeometry relative="1" as="geometry"><mxPoint x="200" y="405" as="sourcePoint"/><mxPoint x="360" y="405" as="targetPoint"/></mxGeometry></mxCell><mxCell id="212" value="1..2" style="text;html=1;align=center;verticalAlign=middle;resizable=0;points=[];autosize=1;strokeColor=none;fillColor=none;container=0;" parent="1" vertex="1"><mxGeometry x="270" y="297" width="40" height="30" as="geometry"/></mxCell><mxCell id="213" value="Player" style="shape=ext;margin=3;double=1;whiteSpace=wrap;html=1;align=center;container=0;" parent="1" vertex="1"><mxGeometry x="180" y="300" width="100" height="40" as="geometry"/></mxCell><mxCell id="227" value="plays" style="shape=rhombus;double=1;perimeter=rhombusPerimeter;whiteSpace=wrap;html=1;align=center;container=0;" parent="1" vertex="1"><mxGeometry x="360" y="300" width="80" height="40" as="geometry"/></mxCell><mxCell id="228" value="" style="shape=link;html=1;rounded=0;" parent="1" source="227" target="213" edge="1"><mxGeometry relative="1" as="geometry"><mxPoint x="200" y="305" as="sourcePoint"/><mxPoint x="360" y="305" as="targetPoint"/><Array as="points"/></mxGeometry></mxCell><mxCell id="230" value="" style="endArrow=none;html=1;rounded=0;" parent="1" source="227" target="287" edge="1"><mxGeometry relative="1" as="geometry"><mxPoint x="200" y="305" as="sourcePoint"/><mxPoint x="520" y="320" as="targetPoint"/></mxGeometry></mxCell><mxCell id="231" value="1" style="resizable=0;html=1;align=right;verticalAlign=bottom;container=0;" parent="230" connectable="0" vertex="1"><mxGeometry relative="1" as="geometry"><mxPoint x="40" as="offset"/></mxGeometry></mxCell><mxCell id="235" value="has" style="shape=rhombus;double=1;perimeter=rhombusPerimeter;whiteSpace=wrap;html=1;align=center;container=0;" parent="1" vertex="1"><mxGeometry x="190" y="380" width="80" height="40" as="geometry"/></mxCell><mxCell id="236" value="" style="shape=link;html=1;rounded=0;" parent="1" source="235" target="213" edge="1"><mxGeometry relative="1" as="geometry"><mxPoint x="200" y="305" as="sourcePoint"/><mxPoint x="360" y="305" as="targetPoint"/></mxGeometry></mxCell><mxCell id="237" value="N" style="resizable=0;html=1;align=right;verticalAlign=bottom;container=0;" parent="236" connectable="0" vertex="1"><mxGeometry relative="1" as="geometry"><mxPoint as="offset"/></mxGeometry></mxCell><mxCell id="238" value="" style="endArrow=none;html=1;rounded=0;" parent="1" source="235" target="yqkwtP5y6iGvj30xNfCS-2" edge="1"><mxGeometry relative="1" as="geometry"><mxPoint x="200" y="305" as="sourcePoint"/><mxPoint x="360" y="305" as="targetPoint"/></mxGeometry></mxCell><mxCell id="239" value="1" style="resizable=0;html=1;align=right;verticalAlign=bottom;container=0;" parent="238" connectable="0" vertex="1"><mxGeometry relative="1" as="geometry"><mxPoint y="20" as="offset"/></mxGeometry></mxCell><mxCell id="240" value="color" style="ellipse;whiteSpace=wrap;html=1;align=center;container=0;" parent="1" vertex="1"><mxGeometry x="180" y="240" width="100" height="40" as="geometry"/></mxCell><mxCell id="241" value="" style="endArrow=none;html=1;rounded=0;" parent="1" source="213" target="240" edge="1"><mxGeometry relative="1" as="geometry"><mxPoint x="200" y="305" as="sourcePoint"/><mxPoint x="140" y="275" as="targetPoint"/></mxGeometry></mxCell><mxCell id="242" value="match_state" style="ellipse;whiteSpace=wrap;html=1;align=center;container=0;" parent="1" vertex="1"><mxGeometry x="640" y="300" width="100" height="40" as="geometry"/></mxCell><mxCell id="243" value="" style="endArrow=none;html=1;rounded=0;" parent="1" source="287" target="242" edge="1"><mxGeometry relative="1" as="geometry"><mxPoint x="620" y="320" as="sourcePoint"/><mxPoint x="400" y="375" as="targetPoint"/></mxGeometry></mxCell><mxCell id="244" value="" style="endArrow=none;html=1;rounded=0;" parent="1" source="yqkwtP5y6iGvj30xNfCS-2" target="yqkwtP5y6iGvj30xNfCS-31" edge="1"><mxGeometry relative="1" as="geometry"><mxPoint x="50" y="340" as="sourcePoint"/><mxPoint x="210" y="340" as="targetPoint"/></mxGeometry></mxCell><mxCell id="245" value="aka winner" style="text;html=1;align=center;verticalAlign=middle;resizable=0;points=[];autosize=1;strokeColor=none;fillColor=none;container=0;" parent="1" vertex="1"><mxGeometry x="410" y="230" width="80" height="30" as="geometry"/></mxCell><mxCell id="246" value="column" style="ellipse;whiteSpace=wrap;html=1;align=center;container=0;" parent="1" vertex="1"><mxGeometry x="-280" y="300" width="100" height="40" as="geometry"/></mxCell><mxCell id="247" value="row" style="ellipse;whiteSpace=wrap;html=1;align=center;container=0;" parent="1" vertex="1"><mxGeometry x="-160" y="240" width="100" height="40" as="geometry"/></mxCell><mxCell id="167" value="" style="endArrow=none;html=1;rounded=0;" parent="1" source="247" target="169" edge="1"><mxGeometry relative="1" as="geometry"><mxPoint x="300" y="170" as="sourcePoint"/><mxPoint x="180" y="325" as="targetPoint"/></mxGeometry></mxCell><mxCell id="248" value="" style="endArrow=none;html=1;rounded=0;" parent="1" source="246" target="169" edge="1"><mxGeometry relative="1" as="geometry"><mxPoint x="310" y="310" as="sourcePoint"/><mxPoint x="470" y="310" as="targetPoint"/></mxGeometry></mxCell><mxCell id="273" value="R1" style="text;html=1;align=center;verticalAlign=middle;resizable=0;points=[];autosize=1;strokeColor=none;fillColor=none;container=0;" parent="1" vertex="1"><mxGeometry x="160" y="430" width="40" height="30" as="geometry"/></mxCell><mxCell id="274" value="R2" style="text;html=1;align=center;verticalAlign=middle;resizable=0;points=[];autosize=1;strokeColor=none;fillColor=none;container=0;" parent="1" vertex="1"><mxGeometry x="-120" y="500" width="40" height="30" as="geometry"/></mxCell><mxCell id="275" value="R2" style="text;html=1;align=center;verticalAlign=middle;resizable=0;points=[];autosize=1;strokeColor=none;fillColor=none;container=0;" parent="1" vertex="1"><mxGeometry x="-190" y="460" width="40" height="30" as="geometry"/></mxCell><mxCell id="277" value="R3" style="text;html=1;align=center;verticalAlign=middle;resizable=0;points=[];autosize=1;strokeColor=none;fillColor=none;container=0;" parent="1" vertex="1"><mxGeometry x="220" y="270" width="40" height="30" as="geometry"/></mxCell><mxCell id="279" value="R4" style="text;html=1;align=center;verticalAlign=middle;resizable=0;points=[];autosize=1;strokeColor=none;fillColor=none;container=0;" parent="1" vertex="1"><mxGeometry x="-120" y="280" width="40" height="30" as="geometry"/></mxCell><mxCell id="278" value="R4" style="text;html=1;align=center;verticalAlign=middle;resizable=0;points=[];autosize=1;strokeColor=none;fillColor=none;container=0;" parent="1" vertex="1"><mxGeometry x="-190" y="300" width="40" height="30" as="geometry"/></mxCell><mxCell id="281" value="R5" style="text;html=1;align=center;verticalAlign=middle;resizable=0;points=[];autosize=1;strokeColor=none;fillColor=none;container=0;" parent="1" vertex="1"><mxGeometry x="500" y="280" width="40" height="30" as="geometry"/></mxCell><mxCell id="282" value="R6" style="text;html=1;align=center;verticalAlign=middle;resizable=0;points=[];autosize=1;strokeColor=none;fillColor=none;container=0;" parent="1" vertex="1"><mxGeometry x="610" y="300" width="40" height="30" as="geometry"/></mxCell><mxCell id="283" value="R7" style="text;html=1;align=center;verticalAlign=middle;resizable=0;points=[];autosize=1;strokeColor=none;fillColor=none;container=0;" parent="1" vertex="1"><mxGeometry x="470" y="640" width="40" height="30" as="geometry"/></mxCell><mxCell id="266" value="Restrictions" style="swimlane;fontStyle=0;childLayout=stackLayout;horizontal=1;startSize=26;horizontalStack=0;resizeParent=1;resizeParentMax=0;resizeLast=0;collapsible=1;marginBottom=0;align=center;fontSize=14;container=0;" parent="1" vertex="1"><mxGeometry x="-280" y="600" width="420" height="236" as="geometry"><mxRectangle x="-280" y="600" width="110" height="30" as="alternateBounds"/></mxGeometry></mxCell><mxCell id="9" value="games_played" style="ellipse;whiteSpace=wrap;html=1;align=center;container=0;" parent="1" vertex="1"><mxGeometry x="180" y="676" width="100" height="40" as="geometry"/></mxCell><mxCell id="76" value="" style="endArrow=none;html=1;rounded=0;" parent="1" source="178" target="9" edge="1"><mxGeometry width="50" height="50" relative="1" as="geometry"><mxPoint x="50" y="710" as="sourcePoint"/><mxPoint x="100" y="660" as="targetPoint"/></mxGeometry></mxCell><mxCell id="287" value="Matches" style="whiteSpace=wrap;html=1;align=center;container=0;" parent="1" vertex="1"><mxGeometry x="520" y="300" width="100" height="40" as="geometry"/></mxCell><mxCell id="288" value="has" style="shape=rhombus;perimeter=rhombusPerimeter;whiteSpace=wrap;html=1;align=center;container=0;" parent="1" vertex="1"><mxGeometry x="710" y="460" width="80" height="40" as="geometry"/></mxCell><mxCell id="267" value="R1: Must be unique" style="text;strokeColor=none;fillColor=none;spacingLeft=4;spacingRight=4;overflow=hidden;rotatable=0;points=[[0,0.5],[1,0.5]];portConstraint=eastwest;fontSize=12;whiteSpace=wrap;html=1;container=0;" parent="1" vertex="1"><mxGeometry x="-280" y="626" width="420" height="30" as="geometry"/></mxCell><mxCell id="268" value="R2 : create_date must be older than last used" style="text;strokeColor=none;fillColor=none;spacingLeft=4;spacingRight=4;overflow=hidden;rotatable=0;points=[[0,0.5],[1,0.5]];portConstraint=eastwest;fontSize=12;whiteSpace=wrap;html=1;container=0;" parent="1" vertex="1"><mxGeometry x="-280" y="656" width="420" height="30" as="geometry"/></mxCell><mxCell id="269" value="R3: It's either BLACK or WHITE" style="text;strokeColor=none;fillColor=none;spacingLeft=4;spacingRight=4;overflow=hidden;rotatable=0;points=[[0,0.5],[1,0.5]];portConstraint=eastwest;fontSize=12;whiteSpace=wrap;html=1;container=0;" parent="1" vertex="1"><mxGeometry x="-280" y="686" width="420" height="30" as="geometry"/></mxCell><mxCell id="270" value="R4: Pair (ROW,COLUMN) must be unique" style="text;strokeColor=none;fillColor=none;spacingLeft=4;spacingRight=4;overflow=hidden;rotatable=0;points=[[0,0.5],[1,0.5]];portConstraint=eastwest;fontSize=12;whiteSpace=wrap;html=1;container=0;" parent="1" vertex="1"><mxGeometry x="-280" y="716" width="420" height="30" as="geometry"/></mxCell><mxCell id="271" value="R5: It can only be: black, white, draw or none if the match its not yet finished" style="text;strokeColor=none;fillColor=none;spacingLeft=4;spacingRight=4;overflow=hidden;rotatable=0;points=[[0,0.5],[1,0.5]];portConstraint=eastwest;fontSize=12;whiteSpace=wrap;html=1;container=0;" parent="1" vertex="1"><mxGeometry x="-280" y="746" width="420" height="30" as="geometry"/></mxCell><mxCell id="272" value="R6: It can only be: waiting for player, ongoing, finished" style="text;strokeColor=none;fillColor=none;spacingLeft=4;spacingRight=4;overflow=hidden;rotatable=0;points=[[0,0.5],[1,0.5]];portConstraint=eastwest;fontSize=12;whiteSpace=wrap;html=1;container=0;" parent="1" vertex="1"><mxGeometry x="-280" y="776" width="420" height="30" as="geometry"/></mxCell><mxCell id="280" value="R7: Board size its only 15 or 19" style="text;strokeColor=none;fillColor=none;spacingLeft=4;spacingRight=4;overflow=hidden;rotatable=0;points=[[0,0.5],[1,0.5]];portConstraint=eastwest;fontSize=12;whiteSpace=wrap;html=1;container=0;" parent="1" vertex="1"><mxGeometry x="-280" y="806" width="420" height="30" as="geometry"/></mxCell><mxCell id="295" value="ordinal" style="ellipse;whiteSpace=wrap;html=1;align=center;container=0;" vertex="1" parent="1"><mxGeometry x="-160" y="350" width="100" height="40" as="geometry"/></mxCell><mxCell id="296" value="" style="endArrow=none;html=1;rounded=0;" edge="1" parent="1" source="295" target="169"><mxGeometry width="50" height="50" relative="1" as="geometry"><mxPoint x="180" y="480" as="sourcePoint"/><mxPoint x="230" y="430" as="targetPoint"/></mxGeometry></mxCell><mxCell id="297" value="Lobby" style="whiteSpace=wrap;html=1;align=center;container=0;" vertex="1" parent="1"><mxGeometry x="520" y="460" width="100" height="40" as="geometry"/></mxCell><mxCell id="298" value="id" style="ellipse;whiteSpace=wrap;html=1;align=center;fontStyle=4;container=0;" vertex="1" parent="1"><mxGeometry x="450" y="420" width="100" height="40" as="geometry"/></mxCell><mxCell id="299" value="" style="endArrow=none;html=1;rounded=0;" edge="1" parent="1" source="297" target="298"><mxGeometry width="50" height="50" relative="1" as="geometry"><mxPoint x="180" y="480" as="sourcePoint"/><mxPoint x="230" y="430" as="targetPoint"/></mxGeometry></mxCell><mxCell id="300" value="created_at" style="ellipse;whiteSpace=wrap;html=1;align=center;container=0;" vertex="1" parent="1"><mxGeometry x="450" y="500" width="100" height="40" as="geometry"/></mxCell><mxCell id="301" value="" style="endArrow=none;html=1;rounded=0;" edge="1" parent="1" source="300" target="297"><mxGeometry width="50" height="50" relative="1" as="geometry"><mxPoint x="180" y="480" as="sourcePoint"/><mxPoint x="230" y="430" as="targetPoint"/></mxGeometry></mxCell><mxCell id="303" value="belongs" style="shape=rhombus;perimeter=rhombusPerimeter;whiteSpace=wrap;html=1;align=center;container=0;" vertex="1" parent="1"><mxGeometry x="360" y="460" width="80" height="40" as="geometry"/></mxCell><mxCell id="306" value="has" style="shape=rhombus;perimeter=rhombusPerimeter;whiteSpace=wrap;html=1;align=center;container=0;" vertex="1" parent="1"><mxGeometry x="530" y="540" width="80" height="40" as="geometry"/></mxCell><mxCell id="309" value="creates" style="shape=rhombus;perimeter=rhombusPerimeter;whiteSpace=wrap;html=1;align=center;container=0;" vertex="1" parent="1"><mxGeometry x="530" y="380" width="80" height="40" as="geometry"/></mxCell><mxCell id="314" value="" style="shape=link;html=1;rounded=0;" edge="1" parent="1" source="288" target="287"><mxGeometry relative="1" as="geometry"><mxPoint x="200" y="460" as="sourcePoint"/><mxPoint x="360" y="460" as="targetPoint"/></mxGeometry></mxCell><mxCell id="315" value="N" style="resizable=0;html=1;align=right;verticalAlign=bottom;" connectable="0" vertex="1" parent="314"><mxGeometry x="1" relative="1" as="geometry"><mxPoint x="27" y="20" as="offset"/></mxGeometry></mxCell><mxCell id="316" value="" style="shape=link;html=1;rounded=0;" edge="1" parent="1" source="303" target="yqkwtP5y6iGvj30xNfCS-2"><mxGeometry relative="1" as="geometry"><mxPoint x="200" y="460" as="sourcePoint"/><mxPoint x="350" y="420" as="targetPoint"/></mxGeometry></mxCell><mxCell id="317" value="N" style="resizable=0;html=1;align=right;verticalAlign=bottom;" connectable="0" vertex="1" parent="316"><mxGeometry x="1" relative="1" as="geometry"><mxPoint x="10" as="offset"/></mxGeometry></mxCell><mxCell id="318" value="" style="endArrow=none;html=1;rounded=0;" edge="1" parent="1" source="303" target="297"><mxGeometry relative="1" as="geometry"><mxPoint x="200" y="460" as="sourcePoint"/><mxPoint x="360" y="460" as="targetPoint"/></mxGeometry></mxCell><mxCell id="319" value="1" style="resizable=0;html=1;align=right;verticalAlign=bottom;" connectable="0" vertex="1" parent="318"><mxGeometry x="1" relative="1" as="geometry"/></mxCell><mxCell id="320" value="" style="endArrow=none;html=1;rounded=0;" edge="1" parent="1" source="306" target="297"><mxGeometry relative="1" as="geometry"><mxPoint x="200" y="460" as="sourcePoint"/><mxPoint x="360" y="460" as="targetPoint"/></mxGeometry></mxCell><mxCell id="321" value="1" style="resizable=0;html=1;align=right;verticalAlign=bottom;" connectable="0" vertex="1" parent="320"><mxGeometry x="1" relative="1" as="geometry"><mxPoint y="15" as="offset"/></mxGeometry></mxCell><mxCell id="322" value="" style="endArrow=none;html=1;rounded=0;" edge="1" parent="1" source="306" target="130"><mxGeometry relative="1" as="geometry"><mxPoint x="200" y="460" as="sourcePoint"/><mxPoint x="360" y="460" as="targetPoint"/></mxGeometry></mxCell><mxCell id="323" value="1" style="resizable=0;html=1;align=right;verticalAlign=bottom;" connectable="0" vertex="1" parent="322"><mxGeometry x="1" relative="1" as="geometry"/></mxCell><mxCell id="324" value="" style="endArrow=none;html=1;rounded=0;" edge="1" parent="1" source="309" target="297"><mxGeometry relative="1" as="geometry"><mxPoint x="200" y="460" as="sourcePoint"/><mxPoint x="360" y="460" as="targetPoint"/></mxGeometry></mxCell><mxCell id="325" value="1" style="resizable=0;html=1;align=right;verticalAlign=bottom;" connectable="0" vertex="1" parent="324"><mxGeometry x="1" relative="1" as="geometry"/></mxCell><mxCell id="326" value="" style="shape=link;html=1;rounded=0;" edge="1" parent="1" source="309" target="287"><mxGeometry relative="1" as="geometry"><mxPoint x="200" y="460" as="sourcePoint"/><mxPoint x="360" y="460" as="targetPoint"/></mxGeometry></mxCell><mxCell id="327" value="N" style="resizable=0;html=1;align=right;verticalAlign=bottom;" connectable="0" vertex="1" parent="326"><mxGeometry x="1" relative="1" as="geometry"><mxPoint y="20" as="offset"/></mxGeometry></mxCell></root></mxGraphModel></diagram></mxfile>